<svg xmlns="http://www.w3.org/2000/svg" viewBox="0 0 640 260" width="640" height="260" role="img" aria-label="Cumulative percent return since joining, per strategy">
<line id="zero" x1="44" y1="115.3" x2="500" y2="115.3" stroke="#999999" stroke-width="1" stroke-dasharray="3 3"/>
<text x="38" y="118.3" font-size="10" fill="#888888" text-anchor="end" font-family="sans-serif">0%</text>
<text x="38" y="24.0" font-size="10" fill="#888888" text-anchor="end" font-family="sans-serif">+6.1%</text>
<text x="38" y="232.0" font-size="10" fill="#888888" text-anchor="end" font-family="sans-serif">-7.2%</text>
<text x="44" y="250" font-size="10" fill="#888888" font-family="sans-serif">2026-06-10</text>
<text x="500" y="250" font-size="10" fill="#888888" text-anchor="end" font-family="sans-serif">2026-07-15</text>
<polyline points="44.0,217.1 70.8,173.9 97.6,95.8 124.5,108.0 151.3,81.4 178.1,62.0 204.9,47.7 231.8,60.9 258.6,86.9 285.4,77.0 312.2,30.9 365.9,102.6 392.7,55.5 419.5,85.0 446.4,100.5 473.2,106.5 500.0,138.4" fill="none" stroke="#0F6E56" stroke-width="2"/>
<polyline points="285.4,115.3 312.2,66.4 339.1,113.8 365.9,141.0 392.7,88.2 419.5,117.5 446.4,132.9 473.2,136.1 500.0,158.2" fill="none" stroke="#185FA5" stroke-width="2"/>
<line x1="510" y1="20" x2="526" y2="20" stroke="#0F6E56" stroke-width="2"/>
<text x="530" y="23" font-size="10" fill="#888888" font-family="sans-serif">luc-sentiment (pap… -1.4%</text>
<line x1="510" y1="36" x2="526" y2="36" stroke="#185FA5" stroke-width="2"/>
<text x="530" y="39" font-size="10" fill="#888888" font-family="sans-serif">luc-theme-concentr… -2.6%</text>
</svg>
