<svg xmlns="http://www.w3.org/2000/svg" viewBox="0 0 640 260" width="640" height="260" role="img" aria-label="Cumulative percent return since joining, per strategy">
<line id="zero" x1="44" y1="114.0" x2="500" y2="114.0" stroke="#999999" stroke-width="1" stroke-dasharray="3 3"/>
<text x="38" y="117.0" font-size="10" fill="#888888" text-anchor="end" font-family="sans-serif">0%</text>
<text x="38" y="24.0" font-size="10" fill="#888888" text-anchor="end" font-family="sans-serif">+6.1%</text>
<text x="38" y="232.0" font-size="10" fill="#888888" text-anchor="end" font-family="sans-serif">-7.4%</text>
<text x="44" y="250" font-size="10" fill="#888888" font-family="sans-serif">2026-06-10</text>
<text x="500" y="250" font-size="10" fill="#888888" text-anchor="end" font-family="sans-serif">2026-07-21</text>
<polyline points="44.0,214.4 65.7,171.8 87.4,94.9 109.1,106.8 130.9,80.7 152.6,61.5 174.3,47.5 196.0,60.4 217.7,86.1 239.4,76.4 261.1,30.9 304.6,101.6 326.3,55.1 348.0,84.2 369.7,99.5 391.4,105.4 413.1,136.8 434.9,172.4 456.6,203.4 478.3,185.4 500.0,140.2" fill="none" stroke="#0F6E56" stroke-width="2"/>
<polyline points="239.4,114.0 261.1,65.8 282.9,112.6 304.6,139.4 326.3,87.4 348.0,116.3 369.7,131.4 391.4,134.6 413.1,156.3 434.9,192.9 456.6,217.1 478.3,210.7 500.0,177.2" fill="none" stroke="#185FA5" stroke-width="2"/>
<line x1="510" y1="20" x2="526" y2="20" stroke="#0F6E56" stroke-width="2"/>
<text x="530" y="23" font-size="10" fill="#888888" font-family="sans-serif">luc-sentiment (pap… -1.6%</text>
<line x1="510" y1="36" x2="526" y2="36" stroke="#185FA5" stroke-width="2"/>
<text x="530" y="39" font-size="10" fill="#888888" font-family="sans-serif">luc-theme-concentr… -4.0%</text>
</svg>
