<svg xmlns="http://www.w3.org/2000/svg" viewBox="0 0 640 260" width="640" height="260" role="img" aria-label="Cumulative percent return since joining, per strategy">
<line id="zero" x1="44" y1="58.5" x2="500" y2="58.5" stroke="#999999" stroke-width="1" stroke-dasharray="3 3"/>
<text x="38" y="61.5" font-size="10" fill="#888888" text-anchor="end" font-family="sans-serif">0%</text>
<text x="38" y="24.0" font-size="10" fill="#888888" text-anchor="end" font-family="sans-serif">+11.4%</text>
<text x="38" y="232.0" font-size="10" fill="#888888" text-anchor="end" font-family="sans-serif">-46.7%</text>
<text x="44" y="250" font-size="10" fill="#888888" font-family="sans-serif">2026-08-10</text>
<text x="500" y="250" font-size="10" fill="#888888" text-anchor="end" font-family="sans-serif">2026-08-20</text>
<polyline points="44.0,58.5 101.0,58.8 158.0,53.6 215.0,54.2 272.0,59.5 329.0,43.4 386.0,50.5 443.0,44.2 500.0,51.8" fill="none" stroke="#0F6E56" stroke-width="2"/>
<polyline points="44.0,58.5 101.0,58.4 158.0,52.2 215.0,41.0 329.0,30.9 386.0,47.0 443.0,53.2 500.0,217.1" fill="none" stroke="#185FA5" stroke-width="2"/>
<line x1="510" y1="20" x2="526" y2="20" stroke="#0F6E56" stroke-width="2"/>
<text x="530" y="23" font-size="10" fill="#888888" font-family="sans-serif">luc-sentiment (pap… +1.8%</text>
<line x1="510" y1="36" x2="526" y2="36" stroke="#185FA5" stroke-width="2"/>
<text x="530" y="39" font-size="10" fill="#888888" font-family="sans-serif">luc-theme-concentr… -42.7%</text>
</svg>
