<svg xmlns="http://www.w3.org/2000/svg" viewBox="0 0 640 260" width="640" height="260" role="img" aria-label="Cumulative percent return since joining, per strategy">
<line id="zero" x1="44" y1="112.4" x2="500" y2="112.4" stroke="#999999" stroke-width="1" stroke-dasharray="3 3"/>
<text x="38" y="115.4" font-size="10" fill="#888888" text-anchor="end" font-family="sans-serif">0%</text>
<text x="38" y="24.0" font-size="10" fill="#888888" text-anchor="end" font-family="sans-serif">+6.2%</text>
<text x="38" y="232.0" font-size="10" fill="#888888" text-anchor="end" font-family="sans-serif">-7.7%</text>
<text x="44" y="250" font-size="10" fill="#888888" font-family="sans-serif">2026-06-10</text>
<text x="500" y="250" font-size="10" fill="#888888" text-anchor="end" font-family="sans-serif">2026-07-24</text>
<polyline points="44.0,210.7 63.0,168.9 82.0,93.6 101.0,105.3 120.0,79.7 139.0,60.9 158.0,47.2 177.0,59.8 196.0,85.0 215.0,75.5 234.0,30.9 272.0,100.2 291.0,54.7 310.0,83.1 329.0,98.1 348.0,103.9 367.0,134.7 386.0,169.6 405.0,199.9 424.0,182.2 443.0,138.0 462.0,137.8 481.0,159.3" fill="none" stroke="#0F6E56" stroke-width="2"/>
<polyline points="215.0,112.4 234.0,65.1 253.0,110.9 272.0,137.2 291.0,86.2 310.0,114.5 329.0,129.4 348.0,132.5 367.0,153.8 386.0,189.6 405.0,213.4 424.0,207.1 443.0,174.3 462.0,173.8 481.0,181.9 500.0,217.1" fill="none" stroke="#185FA5" stroke-width="2"/>
<line x1="510" y1="20" x2="526" y2="20" stroke="#0F6E56" stroke-width="2"/>
<text x="530" y="23" font-size="10" fill="#888888" font-family="sans-serif">luc-sentiment (pap… -3.0%</text>
<line x1="510" y1="36" x2="526" y2="36" stroke="#185FA5" stroke-width="2"/>
<text x="530" y="39" font-size="10" fill="#888888" font-family="sans-serif">luc-theme-concentr… -6.7%</text>
</svg>
