<svg xmlns="http://www.w3.org/2000/svg" viewBox="0 0 640 260" width="640" height="260" role="img" aria-label="Cumulative percent return since joining, per strategy">
<line id="zero" x1="44" y1="114.0" x2="500" y2="114.0" stroke="#999999" stroke-width="1" stroke-dasharray="3 3"/>
<text x="38" y="117.0" font-size="10" fill="#888888" text-anchor="end" font-family="sans-serif">0%</text>
<text x="38" y="24.0" font-size="10" fill="#888888" text-anchor="end" font-family="sans-serif">+6.1%</text>
<text x="38" y="232.0" font-size="10" fill="#888888" text-anchor="end" font-family="sans-serif">-7.4%</text>
<text x="44" y="250" font-size="10" fill="#888888" font-family="sans-serif">2026-06-10</text>
<text x="500" y="250" font-size="10" fill="#888888" text-anchor="end" font-family="sans-serif">2026-07-22</text>
<polyline points="44.0,214.4 64.7,171.8 85.5,94.9 106.2,106.8 126.9,80.7 147.6,61.5 168.4,47.5 189.1,60.4 209.8,86.1 230.5,76.4 251.3,30.9 292.7,101.6 313.5,55.1 334.2,84.2 354.9,99.5 375.6,105.4 396.4,136.8 417.1,172.4 437.8,203.4 458.5,185.4 479.3,140.2" fill="none" stroke="#0F6E56" stroke-width="2"/>
<polyline points="230.5,114.0 251.3,65.8 272.0,112.6 292.7,139.4 313.5,87.4 334.2,116.3 354.9,131.4 375.6,134.6 396.4,156.3 417.1,192.9 437.8,217.1 458.5,210.7 479.3,177.2 500.0,176.7" fill="none" stroke="#185FA5" stroke-width="2"/>
<line x1="510" y1="20" x2="526" y2="20" stroke="#0F6E56" stroke-width="2"/>
<text x="530" y="23" font-size="10" fill="#888888" font-family="sans-serif">luc-sentiment (pap… -1.6%</text>
<line x1="510" y1="36" x2="526" y2="36" stroke="#185FA5" stroke-width="2"/>
<text x="530" y="39" font-size="10" fill="#888888" font-family="sans-serif">luc-theme-concentr… -3.9%</text>
</svg>
