<svg xmlns="http://www.w3.org/2000/svg" viewBox="0 0 640 260" width="640" height="260" role="img" aria-label="Cumulative percent return since joining, per strategy">
<line id="zero" x1="44" y1="115.3" x2="500" y2="115.3" stroke="#999999" stroke-width="1" stroke-dasharray="3 3"/>
<text x="38" y="118.3" font-size="10" fill="#888888" text-anchor="end" font-family="sans-serif">0%</text>
<text x="38" y="24.0" font-size="10" fill="#888888" text-anchor="end" font-family="sans-serif">+6.1%</text>
<text x="38" y="232.0" font-size="10" fill="#888888" text-anchor="end" font-family="sans-serif">-7.2%</text>
<text x="44" y="250" font-size="10" fill="#888888" font-family="sans-serif">2026-06-10</text>
<text x="500" y="250" font-size="10" fill="#888888" text-anchor="end" font-family="sans-serif">2026-07-09</text>
<polyline points="44.0,217.1 79.1,173.9 114.2,95.8 149.2,108.0 184.3,81.4 219.4,62.0 254.5,47.7 289.5,60.9 324.6,86.9 359.7,77.0 394.8,30.9 464.9,102.6 500.0,55.5" fill="none" stroke="#0F6E56" stroke-width="2"/>
<polyline points="359.7,115.3 394.8,66.4 429.8,113.8 464.9,141.0 500.0,88.2" fill="none" stroke="#185FA5" stroke-width="2"/>
<line x1="510" y1="20" x2="526" y2="20" stroke="#0F6E56" stroke-width="2"/>
<text x="530" y="23" font-size="10" fill="#888888" font-family="sans-serif">luc-sentiment (pap… +3.7%</text>
<line x1="510" y1="36" x2="526" y2="36" stroke="#185FA5" stroke-width="2"/>
<text x="530" y="39" font-size="10" fill="#888888" font-family="sans-serif">luc-theme-concentr… +1.7%</text>
</svg>
