<svg xmlns="http://www.w3.org/2000/svg" viewBox="0 0 80 20" width="80" height="20" role="img" aria-label="trend"><polyline points="2.0,10.0 4.6,10.0 7.2,8.2 9.9,5.0 12.5,2.0 15.1,6.7 17.7,8.5 20.3,11.1 23.0,7.9 25.6,13.1 28.2,11.3 30.8,12.0 33.4,11.5 36.1,16.1 38.7,17.0 41.3,15.8 43.9,14.1 46.6,12.7 49.2,18.0 51.8,17.0 54.4,17.5 57.0,15.4 59.7,16.3 62.3,13.2 64.9,13.6 67.5,11.7 70.1,15.5 72.8,15.5 75.4,16.4 78.0,16.7" fill="none" stroke="#cf222e" stroke-width="1.5"/><circle cx="78.0" cy="16.7" r="1.8" fill="#cf222e"/></svg>
